<svg xmlns="http://www.w3.org/2000/svg" xmlns:xlink="http://www.w3.org/1999/xlink"><symbol id="blackboard" viewBox="0 0 512.438 512.438">
<g>
	<g>
		<rect x="32" y="84.219" style="fill:#00C37A;" width="448" height="336"/>
	</g>
	<g>
		<path style="fill:#7E5C62;" d="M472.219,76.219h-432c-8.82,0-16,7.176-16,16v312c0,4.418,3.578,8,8,8s8-3.582,8-8v-312h432v312
			c0,4.418,3.578,8,8,8s8-3.582,8-8v-312C488.219,83.395,481.039,76.219,472.219,76.219z"/>
	</g>
	<g>
		<path style="fill:#E6BE8A;" d="M504.438,436.219H8c-4.418,0-8-3.582-8-8v-16c0-4.418,3.582-8,8-8h496.438c4.418,0,8,3.582,8,8v16
			C512.438,432.637,508.856,436.219,504.438,436.219z"/>
	</g>
	<g>
		<path style="fill:#FFFFFF;" d="M136.219,404.219v-16c0-4.418-3.582-8-8-8h-48c-4.418,0-8,3.582-8,8v16"/>
	</g>
	<g>
		<g>
			<path style="fill:#FFFFFF;" d="M120.219,276.219c-4.422,0-8-3.582-8-8s3.578-8,8-8c13.234,0,24-10.766,24-24s-10.766-24-24-24
				s-24,10.766-24,24c0,4.418-3.578,8-8,8s-8-3.582-8-8c0-22.055,17.945-40,40-40s40,17.945,40,40S142.273,276.219,120.219,276.219z
				"/>
		</g>
	</g>
	<g>
		<g>
			<path style="fill:#FFFFFF;" d="M152.219,308.219h-64c-4.422,0-8-3.582-8-8v-8c0-17.645,14.352-32,32-32h8c4.422,0,8,3.582,8,8
				s-3.578,8-8,8h-8c-8.82,0-16,7.176-16,16h56c4.422,0,8,3.582,8,8S156.641,308.219,152.219,308.219z"/>
		</g>
	</g>
	<g>
		<g>
			<path style="fill:#FFFFFF;" d="M264.219,276.219c-4.422,0-8-3.582-8-8s3.578-8,8-8c13.234,0,24-10.766,24-24s-10.766-24-24-24
				s-24,10.766-24,24c0,4.418-3.578,8-8,8s-8-3.582-8-8c0-22.055,17.945-40,40-40s40,17.945,40,40S286.273,276.219,264.219,276.219z
				"/>
		</g>
	</g>
	<g>
		<g>
			<path style="fill:#FFFFFF;" d="M296.219,308.219h-64c-4.422,0-8-3.582-8-8v-8c0-17.645,14.352-32,32-32h8c4.422,0,8,3.582,8,8
				s-3.578,8-8,8h-8c-8.82,0-16,7.176-16,16h56c4.422,0,8,3.582,8,8S300.641,308.219,296.219,308.219z"/>
		</g>
	</g>
	<g>
		<g>
			<path style="fill:#FFFFFF;" d="M208.219,260.219h-32c-4.422,0-8-3.582-8-8s3.578-8,8-8h32c4.422,0,8,3.582,8,8
				S212.641,260.219,208.219,260.219z"/>
		</g>
	</g>
	<g>
		<g>
			<path style="fill:#FFFFFF;" d="M352.219,276.219h-32c-4.422,0-8-3.582-8-8s3.578-8,8-8h32c4.422,0,8,3.582,8,8
				S356.641,276.219,352.219,276.219z"/>
		</g>
	</g>
	<g>
		<g>
			<path style="fill:#FFFFFF;" d="M352.219,252.219h-32c-4.422,0-8-3.582-8-8s3.578-8,8-8h32c4.422,0,8,3.582,8,8
				S356.641,252.219,352.219,252.219z"/>
		</g>
	</g>
	<g>
		<g>
			<path style="fill:#FFFFFF;" d="M192.219,276.219c-4.422,0-8-3.582-8-8v-32c0-4.418,3.578-8,8-8s8,3.582,8,8v32
				C200.219,272.637,196.641,276.219,192.219,276.219z"/>
		</g>
	</g>
	<g>
		<g>
			<path style="fill:#FFFFFF;" d="M440.219,276.219h-64c-2.461,0-4.789-1.137-6.305-3.078s-2.055-4.473-1.453-6.863l16-64
				c1.07-4.285,5.406-6.906,9.695-5.82c4.289,1.07,6.898,5.414,5.82,9.703l-13.508,54.059h53.75c4.422,0,8,3.582,8,8
				S444.64,276.219,440.219,276.219z"/>
		</g>
	</g>
	<g>
		<g>
			<path style="fill:#FFFFFF;" d="M424.219,308.219c-4.422,0-8-3.582-8-8v-72c0-4.418,3.578-8,8-8s8,3.582,8,8v72
				C432.219,304.637,428.64,308.219,424.219,308.219z"/>
		</g>
	</g>
	<g>
		<path style="fill:#C9A07C;" d="M0,420.219v8c0,4.418,3.582,8,8,8h496.438c4.418,0,8-3.582,8-8v-8H0z"/>
	</g>
</g>
<g>
</g>
<g>
</g>
<g>
</g>
<g>
</g>
<g>
</g>
<g>
</g>
<g>
</g>
<g>
</g>
<g>
</g>
<g>
</g>
<g>
</g>
<g>
</g>
<g>
</g>
<g>
</g>
<g>
</g>
</symbol><symbol id="high-school" viewBox="0 0 455.002 455.002">
<g>
	<polygon style="fill:#FFCC75;" points="0.001,280.002 0.001,455.002 455.001,455.002 455.001,280.002 227.501,260.002  "/>
	<rect x="0.001" y="240.002" style="fill:#F2484B;" width="455" height="40"/>
	<polygon style="fill:#F2EBD9;" points="110.001,179.002 110.001,455.002 160.001,455.002 227.501,435.002 295.001,455.002    345.001,455.002 345.001,179.002 227.501,159.002  "/>
	<rect x="227.501" y="0.002" style="fill:#6DA8D6;" width="80.5" height="43"/>
	<rect x="220.001" style="fill:#082947;" width="15" height="106"/>
	<polygon style="fill:#6DA8D6;" points="227.501,316.662 237.501,435.002 160.001,425.002 160.001,316.662  "/>
	<polygon style="fill:#185F8D;" points="295.001,316.662 295.001,425.002 227.501,435.002 227.501,316.662  "/>
	<polygon style="fill:#FFCC75;" points="295.001,425.002 295.001,455.002 160.001,455.002 160.001,425.002 227.501,425.002  "/>
	<path style="fill:#98D9D5;" d="M227.501,219.002c15.92,0,28.83,12.91,28.83,28.83c0,15.93-12.91,28.84-28.83,28.84   s-28.83-12.91-28.83-28.84C198.671,231.912,211.581,219.002,227.501,219.002z"/>
	<polygon style="fill:#F2484B;" points="235.001,91.938 220.001,91.938 110.001,179.002 345.001,179.002  "/>
	<path style="fill:#FFFFFF;" d="M36.667,354.167c-4.142,0-7.5-3.358-7.5-7.5v-30c0-4.142,3.358-7.5,7.5-7.5s7.5,3.358,7.5,7.5v30   C44.167,350.809,40.81,354.167,36.667,354.167z"/>
	<path style="fill:#FFFFFF;" d="M73.334,354.167c-4.142,0-7.5-3.358-7.5-7.5v-30c0-4.142,3.358-7.5,7.5-7.5s7.5,3.358,7.5,7.5v30   C80.834,350.809,77.477,354.167,73.334,354.167z"/>
	<path style="fill:#FFFFFF;" d="M418.334,354.167c-4.142,0-7.5-3.358-7.5-7.5v-30c0-4.142,3.358-7.5,7.5-7.5s7.5,3.358,7.5,7.5v30   C425.834,350.809,422.477,354.167,418.334,354.167z"/>
	<path style="fill:#FFFFFF;" d="M381.667,354.167c-4.142,0-7.5-3.358-7.5-7.5v-30c0-4.142,3.358-7.5,7.5-7.5s7.5,3.358,7.5,7.5v30   C389.167,350.809,385.81,354.167,381.667,354.167z"/>
</g>















</symbol><symbol id="instagram" viewBox="0 0 512 512">
<circle style="fill:#EF72AD;" cx="256" cy="256" r="256"/>
<path style="fill:#EE539E;" d="M256,0c-11.317,0-22.461,0.744-33.391,2.167C348.216,18.53,445.217,125.933,445.217,256
	s-97.002,237.47-222.609,253.833C233.539,511.256,244.683,512,256,512c141.385,0,256-114.616,256-256S397.385,0,256,0z"/>
<g>
	<path style="fill:#FFFFFF;" d="M350.84,91.826H161.16c-38.231,0-69.334,31.103-69.334,69.334v189.682
		c0,38.231,31.103,69.334,69.334,69.334h189.682c38.231,0,69.334-31.103,69.334-69.334V161.16
		C420.174,122.929,389.071,91.826,350.84,91.826z M403.478,350.84c0,29.025-23.613,52.638-52.638,52.638H161.16
		c-29.025,0-52.638-23.613-52.638-52.638V161.16c0-29.025,23.613-52.638,52.638-52.638h189.682
		c29.025,0,52.638,23.613,52.638,52.638v189.68H403.478z"/>
	<path style="fill:#FFFFFF;" d="M256,169.739c-47.565,0-86.261,38.696-86.261,86.261s38.696,86.261,86.261,86.261
		s86.261-38.696,86.261-86.261S303.565,169.739,256,169.739z M256,325.565c-38.358,0-69.565-31.208-69.565-69.565
		s31.208-69.565,69.565-69.565s69.565,31.208,69.565,69.565S294.358,325.565,256,325.565z"/>
	<circle style="fill:#FFFFFF;" cx="345.043" cy="155.826" r="22.261"/>
</g>
<g>
</g>
<g>
</g>
<g>
</g>
<g>
</g>
<g>
</g>
<g>
</g>
<g>
</g>
<g>
</g>
<g>
</g>
<g>
</g>
<g>
</g>
<g>
</g>
<g>
</g>
<g>
</g>
<g>
</g>
</symbol><symbol id="language" viewBox="0 0 512.001 512.001">
<path style="fill:#37A9BF;" d="M476.34,384.373c21.522-37.236,34.025-80.386,34.361-126.454
	c1.021-140.356-111.64-256.057-251.28-257.897C115.695-1.869-1.016,115.844,1.327,260.255
	C3.6,400.292,118.597,513.047,257.942,511.993c40.643-0.307,78.979-10.235,112.962-27.536l67.512-0.147
	c21.064-0.046,38.103-17.245,38.056-38.416L476.34,384.373z"/>
<path style="fill:#52DDDC;" d="M232.049,1.126C101.176,13.393-0.866,125.133,1.327,260.255
	c2.13,131.259,103.297,238.549,230.721,250.616V1.126z"/>
<path style="fill:#E3E3E3;" d="M499.987,329.57c6.791-22.718,10.531-46.756,10.713-71.651c0.192-26.218-3.588-51.573-10.765-75.489
	H365.964l87.627-87.627c-10.821-13.373-22.961-25.628-36.207-36.58l-87.813,87.813V10.915
	c-22.257-6.777-45.789-10.571-70.148-10.892C232.62-0.33,206.758,3.48,182.431,10.845v135.193l-87.97-87.97
	C81.205,69.009,69.072,81.27,58.253,94.648l87.782,87.782H11.966c-7.329,24.593-11.078,50.74-10.639,77.824
	c0.39,24.056,4.107,47.308,10.703,69.315h134.006l-87.637,87.637c10.832,13.372,22.977,25.621,36.226,36.562l87.806-87.806v135.1
	c23.915,7.29,49.281,11.127,75.512,10.929c24.902-0.188,48.93-4.003,71.628-10.897V365.964l117.358,117.358
	c16.956-3.926,29.586-19.199,29.546-37.427l-0.013-5.827L365.965,329.571h134.022V329.57z"/>
<path style="fill:#FFFFFF;" d="M236.605,511.249V0.744c-18.695,1.417-36.826,4.85-54.174,10.101v135.193l-87.97-87.97
	C81.205,69.009,69.072,81.27,58.253,94.648l87.782,87.782H11.966c-7.329,24.593-11.078,50.74-10.639,77.824
	c0.39,24.056,4.107,47.308,10.703,69.315h134.006l-87.637,87.637c10.832,13.372,22.977,25.621,36.226,36.562l87.806-87.806v135.1
	C199.798,506.358,217.932,509.821,236.605,511.249z"/>
<path style="fill:#AA315E;" d="M507.339,214.501H297.5V3.415c-12.415-2.06-25.128-3.222-38.077-3.393
	c-15.318-0.202-30.329,0.962-44.921,3.367V214.5H4.629c-2.41,14.863-3.555,30.152-3.301,45.754
	c0.206,12.66,1.341,25.094,3.324,37.244H214.5v211.083c14.135,2.35,28.65,3.522,43.441,3.41c13.466-0.102,26.674-1.273,39.558-3.41
	V297.5h209.853c2.102-12.895,3.25-26.112,3.348-39.58C510.807,243.138,509.652,228.631,507.339,214.501z"/>
<path style="fill:#DF3F7C;" d="M256.001,0c-14.133,0.001-27.995,1.164-41.5,3.389V214.5H4.629
	c-2.41,14.863-3.555,30.152-3.301,45.754c0.206,12.66,1.341,25.094,3.324,37.244H214.5v211.083
	c13.516,2.247,27.38,3.417,41.499,3.417L256.001,0z"/>
<g>
</g>
<g>
</g>
<g>
</g>
<g>
</g>
<g>
</g>
<g>
</g>
<g>
</g>
<g>
</g>
<g>
</g>
<g>
</g>
<g>
</g>
<g>
</g>
<g>
</g>
<g>
</g>
<g>
</g>
</symbol><symbol id="palette" viewBox="0 0 495.578 495.578">
<g>
	<g>
		<path style="fill:#E6BE94;" d="M439.208,215.578c-46.975-53.529-96-65.973-96-125c0-64.333-54.333-113.667-149.429-79.321
			C91.816,48.083,21.208,136.911,21.208,247.578c0,136.966,111.033,248,248,248c22.527,0,44.354-3.004,65.099-8.632l-0.006-0.026
			C439.208,456.578,525.208,313.578,439.208,215.578z M333.709,189.69c-14.501,18.555-54.668,7.707-70.17-18.547
			c-13.664-23.14-8.664-56.232,14.988-70.822c13.71-8.457,31.791-0.135,35.231,15.602c2.8,12.806,8.543,28.671,20.239,43.187
			C341.125,167.96,340.707,180.736,333.709,189.69z"/>
	</g>
	<g>
		<circle style="fill:#FF4F19;" cx="165.098" cy="135.688" r="47.89"/>
	</g>
	<g>
		<circle style="fill:#FF8C62;" cx="176.94" cy="123.715" r="16.762"/>
	</g>
	<g>
		<circle style="fill:#FFCD00;" cx="117.098" cy="255.688" r="47.89"/>
	</g>
	<g>
		<circle style="fill:#FFE671;" cx="128.94" cy="243.715" r="16.762"/>
	</g>
	<g>
		<circle style="fill:#00C37A;" cx="172.879" cy="367.469" r="47.89"/>
	</g>
	<g>
		<circle style="fill:#60DC4D;" cx="184.72" cy="355.496" r="16.762"/>
	</g>
	<g>
		<circle style="fill:#4CD7FF;" cx="293.098" cy="407.688" r="47.89"/>
	</g>
	<g>
		<circle style="fill:#AEEFFF;" cx="304.939" cy="395.715" r="16.762"/>
	</g>
	<g>
		<circle style="fill:#009BCA;" cx="381.098" cy="319.469" r="47.89"/>
	</g>
	<g>
		<circle style="fill:#4CD7FF;" cx="392.939" cy="307.496" r="16.762"/>
	</g>
</g>
<g>
</g>
<g>
</g>
<g>
</g>
<g>
</g>
<g>
</g>
<g>
</g>
<g>
</g>
<g>
</g>
<g>
</g>
<g>
</g>
<g>
</g>
<g>
</g>
<g>
</g>
<g>
</g>
<g>
</g>
</symbol><symbol id="students" viewBox="0 0 512 512">
<g>
	<circle style="fill:#25B6D2;" cx="256" cy="220.68" r="69.104"/>
	<path style="fill:#25B6D2;" d="M365.408,423.912c-1.2-66.016-49.68-119.136-109.408-119.136s-108.224,53.136-109.408,119.136
		H365.408z"/>
	<circle style="fill:#25B6D2;" cx="82.192" cy="140.008" r="51.92"/>
	<path style="fill:#25B6D2;" d="M164.4,292.696c-0.896-49.584-37.312-89.504-82.208-89.504S0.896,243.112,0,292.696H164.4z"/>
	<circle style="fill:#25B6D2;" cx="429.792" cy="140.008" r="51.92"/>
	<path style="fill:#25B6D2;" d="M512,292.696c-0.896-49.584-37.312-89.504-82.208-89.504s-81.296,39.92-82.208,89.504H512z"/>
</g>
<g>
</g>
<g>
</g>
<g>
</g>
<g>
</g>
<g>
</g>
<g>
</g>
<g>
</g>
<g>
</g>
<g>
</g>
<g>
</g>
<g>
</g>
<g>
</g>
<g>
</g>
<g>
</g>
<g>
</g>
</symbol><symbol id="teacher" viewBox="0 0 512 512">
<circle style="fill:#FFC61B;" cx="256" cy="256" r="256"/>
<path style="fill:#D48B07;" d="M232.441,377.823l116.698,116.698c86.616-33.849,150.264-113.512,161.178-209.196L303.752,78.76
	L232.441,377.823z"/>
<rect x="213.333" y="292.219" style="fill:#FCD088;" width="85.333" height="104.296"/>
<rect x="255.431" y="292.219" style="fill:#DDAB62;" width="43.236" height="104.296"/>
<path style="fill:#FFAD9E;" d="M357.764,365.671l-45.22-9.044l-7.992-11.666c-1.496-2.184-4.327-3.007-6.759-1.965L256,390.494
	l-41.543-47.48c-2.415-1.053-5.239-0.262-6.754,1.893l-8.247,11.719l-45.22,9.044c-23.023,4.606-39.596,24.821-39.596,48.3v55.475
	C155.148,496.328,203.742,512,256,512s100.852-15.672,141.36-42.555V413.97C397.36,390.491,380.787,370.276,357.764,365.671z"/>
<path style="fill:#FF6262;" d="M357.764,365.671l-45.22-9.044l-7.992-11.666c-1.496-2.184-4.327-3.007-6.759-1.965L256,390.494
	l-0.574-0.657v122.151c0.191,0,0.381,0.01,0.574,0.01c52.258,0,100.852-15.672,141.36-42.555v-55.475
	C397.36,390.491,380.787,370.276,357.764,365.671z"/>
<path style="fill:#FFEDB5;" d="M347.531,205.44c0.459-4.244,0.698-8.428,0.698-12.509c0-53.974-41.293-97.728-92.229-97.728
	s-92.229,43.754-92.229,97.728c0,4.08,0.24,8.264,0.698,12.509c-8.945,2.326-13.202,16.087-9.506,30.817
	c3.708,14.776,14.014,24.921,23.018,22.661c0.821-0.205,1.586-0.538,2.326-0.927c16.667,33.452,44.351,60.594,75.693,60.594
	s59.027-27.139,75.693-60.594c0.74,0.39,1.505,0.722,2.326,0.927c9.004,2.26,19.309-7.885,23.018-22.661
	C360.734,221.527,356.478,207.763,347.531,205.44z"/>
<path style="fill:#E8CF89;" d="M347.531,205.44c0.459-4.244,0.698-8.428,0.698-12.509c0-53.974-41.293-97.728-92.229-97.728
	c-0.193,0-0.381,0.014-0.574,0.016v223.349c0.191,0.002,0.383,0.016,0.574,0.016c31.342,0,59.027-27.139,75.693-60.594
	c0.74,0.39,1.505,0.722,2.326,0.927c9.004,2.26,19.309-7.885,23.018-22.661C360.734,221.527,356.478,207.763,347.531,205.44z"/>
<g>
	<circle style="fill:#FFFFFF;" cx="256" cy="413.186" r="4.31"/>
	<circle style="fill:#FFFFFF;" cx="256" cy="430.994" r="4.31"/>
	<path style="fill:#FFFFFF;" d="M256,390.608l-40.262-51.053c-1.714-2.007-4.817-2.003-6.527,0.007l-15.56,18.292l33.57,53.713
		c2.796,4.472,9.266,4.596,12.229,0.233L256,390.608z"/>
</g>
<path style="fill:#E0E0E0;" d="M256,390.608l40.262-51.053c1.714-2.007,4.817-2.003,6.527,0.007l15.56,18.292l-33.57,53.713
	c-2.796,4.472-9.266,4.596-12.229,0.233L256,390.608z"/>
<path style="fill:#444444;" d="M295.684,200.416c-12.266,0-22.566,8.459-25.447,19.842h-28.472
	c-2.882-11.383-13.181-19.842-25.447-19.842c-10.85,0-20.183,6.611-24.188,16.015l-21.306-21.307c-1.684-1.684-4.411-1.684-6.094,0
	c-1.684,1.683-1.684,4.411,0,6.094l25.319,25.321c0,0.052-0.009,0.103-0.009,0.155c0,14.489,11.788,26.277,26.277,26.277
	c13.753,0,25.052-10.624,26.167-24.095h27.033c1.115,13.469,12.414,24.095,26.167,24.095c14.489,0,26.277-11.788,26.277-26.277
	S310.174,200.416,295.684,200.416z M216.317,244.352c-9.737,0-17.658-7.921-17.658-17.658c0-9.737,7.921-17.658,17.658-17.658
	c9.737,0,17.658,7.921,17.658,17.658C233.975,236.43,226.054,244.352,216.317,244.352z M295.684,244.352
	c-9.737,0-17.658-7.921-17.658-17.658c0-9.737,7.921-17.658,17.658-17.658c9.737,0,17.658,7.921,17.658,17.658
	C313.342,236.43,305.421,244.352,295.684,244.352z"/>
<path style="fill:#333333;" d="M295.684,200.416c-12.266,0-22.566,8.459-25.447,19.842h-14.81v8.62h14.091
	c1.115,13.469,12.414,24.095,26.167,24.095c14.489,0,26.277-11.788,26.277-26.277S310.174,200.416,295.684,200.416z
	 M295.684,244.352c-9.737,0-17.658-7.921-17.658-17.658c0-9.737,7.921-17.658,17.658-17.658c9.737,0,17.658,7.921,17.658,17.658
	C313.342,236.43,305.421,244.352,295.684,244.352z"/>
<path style="fill:#444444;" d="M318.185,228.524c-1.103,0-2.205-0.421-3.048-1.262c-1.684-1.683-1.684-4.411,0-6.094l26.041-26.043
	c1.684-1.684,4.411-1.684,6.094,0c1.684,1.683,1.684,4.411,0,6.094l-26.041,26.043C320.39,228.102,319.286,228.524,318.185,228.524z
	"/>
<path style="fill:#494948;" d="M350.817,144.52c-12.495-20.396-29.091-38.253-49.652-48.909c2.367-3.35,3.681-7.011,3.681-10.854
	c0-15.869-22.254-28.732-49.705-28.732s-49.705,12.864-49.705,28.732c0,4.277,1.629,8.332,4.529,11.979
	c-0.507,0.229-1.003,0.428-1.512,0.664c-66.801,31.03-57.894,129.724-53.872,119.38c4.022-10.343,9.892-11.342,9.892-11.342
	c34.887-16.084,56.477-50.288,56.477-50.288s119.524,22.699,102.285,154.864C323.234,310.015,398.688,222.653,350.817,144.52z"/>
<path style="fill:#333333;" d="M350.817,144.52c-12.495-20.396-29.091-38.253-49.652-48.909c2.367-3.35,3.681-7.011,3.681-10.854
	c0-15.812-22.1-28.638-49.419-28.727v111.976c33.823,17.648,78.845,57.392,67.806,142.008
	C323.234,310.015,398.688,222.653,350.817,144.52z"/>
<g>
</g>
<g>
</g>
<g>
</g>
<g>
</g>
<g>
</g>
<g>
</g>
<g>
</g>
<g>
</g>
<g>
</g>
<g>
</g>
<g>
</g>
<g>
</g>
<g>
</g>
<g>
</g>
<g>
</g>
</symbol><symbol id="vk" viewBox="0 0 112.196 112.196">
<g>
	<g>
		<circle id="XMLID_11_" style="fill:#4D76A1;" cx="56.098" cy="56.098" r="56.098"/>
	</g>
	<path style="fill-rule:evenodd;clip-rule:evenodd;fill:#FFFFFF;" d="M53.979,80.702h4.403c0,0,1.33-0.146,2.009-0.878
		c0.625-0.672,0.605-1.934,0.605-1.934s-0.086-5.908,2.656-6.778c2.703-0.857,6.174,5.71,9.853,8.235
		c2.782,1.911,4.896,1.492,4.896,1.492l9.837-0.137c0,0,5.146-0.317,2.706-4.363c-0.2-0.331-1.421-2.993-7.314-8.463
		c-6.168-5.725-5.342-4.799,2.088-14.702c4.525-6.031,6.334-9.713,5.769-11.29c-0.539-1.502-3.867-1.105-3.867-1.105l-11.076,0.069
		c0,0-0.821-0.112-1.43,0.252c-0.595,0.357-0.978,1.189-0.978,1.189s-1.753,4.667-4.091,8.636c-4.932,8.375-6.904,8.817-7.71,8.297
		c-1.875-1.212-1.407-4.869-1.407-7.467c0-8.116,1.231-11.5-2.397-12.376c-1.204-0.291-2.09-0.483-5.169-0.514
		c-3.952-0.041-7.297,0.012-9.191,0.94c-1.26,0.617-2.232,1.992-1.64,2.071c0.732,0.098,2.39,0.447,3.269,1.644
		c1.135,1.544,1.095,5.012,1.095,5.012s0.652,9.554-1.523,10.741c-1.493,0.814-3.541-0.848-7.938-8.446
		c-2.253-3.892-3.954-8.194-3.954-8.194s-0.328-0.804-0.913-1.234c-0.71-0.521-1.702-0.687-1.702-0.687l-10.525,0.069
		c0,0-1.58,0.044-2.16,0.731c-0.516,0.611-0.041,1.875-0.041,1.875s8.24,19.278,17.57,28.993
		C44.264,81.287,53.979,80.702,53.979,80.702L53.979,80.702z"/>
</g>
<g>
</g>
<g>
</g>
<g>
</g>
<g>
</g>
<g>
</g>
<g>
</g>
<g>
</g>
<g>
</g>
<g>
</g>
<g>
</g>
<g>
</g>
<g>
</g>
<g>
</g>
<g>
</g>
<g>
</g>
</symbol></svg>